<svg xmlns="http://www.w3.org/2000/svg" xmlns:xlink="http://www.w3.org/1999/xlink" viewBox="0 0 585 270.5"><defs><style>.cls-1{fill:url(#Naamloos_verloop_54);}.cls-2{fill:#6d433e;}.cls-3{fill:url(#Naamloos_verloop_35);}.cls-4{fill:url(#Naamloos_verloop_35-2);}.cls-5{fill:url(#Naamloos_verloop_35-3);}.cls-6{fill:url(#Naamloos_verloop_35-4);}.cls-7{fill:url(#Naamloos_verloop_35-5);}.cls-8{fill:url(#Naamloos_verloop_35-6);}.cls-9{fill:url(#Naamloos_verloop_35-7);}.cls-10{fill:url(#Naamloos_verloop_35-8);}.cls-11{fill:url(#Naamloos_verloop_35-9);}.cls-12{fill:url(#Naamloos_verloop_35-10);}.cls-13{fill:url(#Naamloos_verloop_35-11);}.cls-14{fill:url(#Naamloos_verloop_35-12);}.cls-15{fill:url(#Naamloos_verloop_35-13);}.cls-16{fill:url(#Naamloos_verloop_35-14);}.cls-17{fill:url(#Naamloos_verloop_35-15);}.cls-18{fill:url(#Naamloos_verloop_35-16);}.cls-19{fill:url(#Naamloos_verloop_35-17);}.cls-20{fill:url(#Naamloos_verloop_35-18);}.cls-21{fill:url(#Naamloos_verloop_35-19);}.cls-22{fill:url(#Naamloos_verloop_35-20);}.cls-23{fill:url(#Naamloos_verloop_35-21);}.cls-24{fill:url(#Naamloos_verloop_35-22);}.cls-25{fill:url(#Naamloos_verloop_35-23);}.cls-26{fill:url(#Naamloos_verloop_35-24);}.cls-27{fill:url(#Naamloos_verloop_35-25);}.cls-28{fill:url(#Naamloos_verloop_35-26);}.cls-29{fill:url(#Naamloos_verloop_35-27);}.cls-30{fill:url(#Naamloos_verloop_35-28);}.cls-31{fill:url(#Naamloos_verloop_35-29);}.cls-32{fill:url(#Naamloos_verloop_35-30);}.cls-33{fill:url(#Naamloos_verloop_35-31);}.cls-34{fill:url(#Naamloos_verloop_35-32);}.cls-35{fill:url(#Naamloos_verloop_35-33);}.cls-36{fill:url(#Naamloos_verloop_35-34);}.cls-37{fill:url(#Naamloos_verloop_35-35);}.cls-38{fill:url(#Naamloos_verloop_35-36);}</style><linearGradient id="Naamloos_verloop_54" x1="292.98" y1="321.71" x2="291.48" y2="-263.78" gradientUnits="userSpaceOnUse"><stop offset="0" stop-color="#6e352c"/><stop offset="0.2" stop-color="#592b22"/><stop offset="0.47" stop-color="#452219"/><stop offset="0.74" stop-color="#391c13"/><stop offset="1" stop-color="#351a11"/><stop offset="1" stop-color="#66362e"/></linearGradient><linearGradient id="Naamloos_verloop_35" x1="15" y1="217" x2="19" y2="217" gradientUnits="userSpaceOnUse"><stop offset="0" stop-color="#3a2316"/><stop offset="1" stop-color="#351a11"/></linearGradient><linearGradient id="Naamloos_verloop_35-2" x1="80" y1="217" x2="84" y2="217" xlink:href="#Naamloos_verloop_35"/><linearGradient id="Naamloos_verloop_35-3" x1="142" y1="217" x2="146" y2="217" xlink:href="#Naamloos_verloop_35"/><linearGradient id="Naamloos_verloop_35-4" x1="207" y1="217" x2="211" y2="217" xlink:href="#Naamloos_verloop_35"/><linearGradient id="Naamloos_verloop_35-5" x1="264" y1="217" x2="268" y2="217" xlink:href="#Naamloos_verloop_35"/><linearGradient id="Naamloos_verloop_35-6" x1="329" y1="217" x2="333" y2="217" xlink:href="#Naamloos_verloop_35"/><linearGradient id="Naamloos_verloop_35-7" x1="391" y1="217" x2="395" y2="217" xlink:href="#Naamloos_verloop_35"/><linearGradient id="Naamloos_verloop_35-8" x1="456" y1="217" x2="460" y2="217" xlink:href="#Naamloos_verloop_35"/><linearGradient id="Naamloos_verloop_35-9" x1="524" y1="217" x2="528" y2="217" xlink:href="#Naamloos_verloop_35"/><linearGradient id="Naamloos_verloop_35-10" x1="36" y1="162" x2="40" y2="162" xlink:href="#Naamloos_verloop_35"/><linearGradient id="Naamloos_verloop_35-11" x1="101" y1="162" x2="105" y2="162" xlink:href="#Naamloos_verloop_35"/><linearGradient id="Naamloos_verloop_35-12" x1="163" y1="162" x2="167" y2="162" xlink:href="#Naamloos_verloop_35"/><linearGradient id="Naamloos_verloop_35-13" x1="228" y1="162" x2="232" y2="162" xlink:href="#Naamloos_verloop_35"/><linearGradient id="Naamloos_verloop_35-14" x1="285" y1="162" x2="289" y2="162" xlink:href="#Naamloos_verloop_35"/><linearGradient id="Naamloos_verloop_35-15" x1="350" y1="162" x2="354" y2="162" xlink:href="#Naamloos_verloop_35"/><linearGradient id="Naamloos_verloop_35-16" x1="412" y1="162" x2="416" y2="162" xlink:href="#Naamloos_verloop_35"/><linearGradient id="Naamloos_verloop_35-17" x1="477" y1="162" x2="481" y2="162" xlink:href="#Naamloos_verloop_35"/><linearGradient id="Naamloos_verloop_35-18" x1="545" y1="162" x2="549" y2="162" xlink:href="#Naamloos_verloop_35"/><linearGradient id="Naamloos_verloop_35-19" x1="23" y1="115" x2="27" y2="115" xlink:href="#Naamloos_verloop_35"/><linearGradient id="Naamloos_verloop_35-20" x1="88" y1="115" x2="92" y2="115" xlink:href="#Naamloos_verloop_35"/><linearGradient id="Naamloos_verloop_35-21" x1="150" y1="115" x2="154" y2="115" xlink:href="#Naamloos_verloop_35"/><linearGradient id="Naamloos_verloop_35-22" x1="215" y1="115" x2="219" y2="115" xlink:href="#Naamloos_verloop_35"/><linearGradient id="Naamloos_verloop_35-23" x1="272" y1="115" x2="276" y2="115" xlink:href="#Naamloos_verloop_35"/><linearGradient id="Naamloos_verloop_35-24" x1="337" y1="115" x2="341" y2="115" xlink:href="#Naamloos_verloop_35"/><linearGradient id="Naamloos_verloop_35-25" x1="399" y1="115" x2="403" y2="115" xlink:href="#Naamloos_verloop_35"/><linearGradient id="Naamloos_verloop_35-26" x1="464" y1="115" x2="468" y2="115" xlink:href="#Naamloos_verloop_35"/><linearGradient id="Naamloos_verloop_35-27" x1="532" y1="115" x2="536" y2="115" xlink:href="#Naamloos_verloop_35"/><linearGradient id="Naamloos_verloop_35-28" y1="67" y2="67" xlink:href="#Naamloos_verloop_35"/><linearGradient id="Naamloos_verloop_35-29" x1="80" y1="67" x2="84" y2="67" xlink:href="#Naamloos_verloop_35"/><linearGradient id="Naamloos_verloop_35-30" x1="142" y1="67" x2="146" y2="67" xlink:href="#Naamloos_verloop_35"/><linearGradient id="Naamloos_verloop_35-31" x1="207" y1="67" x2="211" y2="67" xlink:href="#Naamloos_verloop_35"/><linearGradient id="Naamloos_verloop_35-32" x1="264" y1="67" x2="268" y2="67" xlink:href="#Naamloos_verloop_35"/><linearGradient id="Naamloos_verloop_35-33" x1="329" y1="67" x2="333" y2="67" xlink:href="#Naamloos_verloop_35"/><linearGradient id="Naamloos_verloop_35-34" x1="391" y1="67" x2="395" y2="67" xlink:href="#Naamloos_verloop_35"/><linearGradient id="Naamloos_verloop_35-35" x1="456" y1="67" x2="460" y2="67" xlink:href="#Naamloos_verloop_35"/><linearGradient id="Naamloos_verloop_35-36" x1="524" y1="67" x2="528" y2="67" xlink:href="#Naamloos_verloop_35"/></defs><title>Background_3</title><g id="Layer_2" data-name="Layer 2"><g id="veld_1" data-name="veld 1"><rect class="cls-1" width="585" height="270.5"/><path class="cls-2" d="M.11,242.14s51.57-2.55,81.7,0,23,4.09,46,4.6,29.62-1.53,49-1.53,16.34-4.63,42.38-1.29,22.1,6.91,48.33,2.82,19.08-5.62,43.08-5.11,37.27,0,54.13,2.28,28.09,9.63,41.36,2.91,33.7-9.5,49.53-5.81,18.38,1.21,38.81,3.47,16.34.29,35.23,0,38.81,0,38.81,0h15.93v-5.11s-97.12-1.31-107.34-2.84-19.4,1.53-31.66,0-35.23.51-45.45,2.55-5.11,0-18.38-3.09-44.51-.49-53.15-1.51-24-.51-35.2,1.53-15.32,4.09-26.55,4.09-15.32-1.53-28.59-2-30.64-1-37.28-1-11.74-1.53-24.51,0-20.94,3.06-33.19,2.55-31.66-1.53-46-2.55-24-2-38.81-3.06-23.46,1-31.9,0S.11,233.67.11,233.67Z"/><path class="cls-2" d="M1,197.56s49.49.48,74.5,0,20.92,3.37,52,0,28.57-7.23,48.47-6.75,25,3.86,50,3.86a362.87,362.87,0,0,0,55-4.34c9.25-1.45-7.07-3.37,32.47,1s63.52,7.23,83.42,4.82,31.13-8.7,44.39-7.48,18.88,1.22,46.43,3.15,34.19,3.55,41.84,2,5.61-9.59,20.92-5.32,27,8.12,27,8.12l6.63-1.45.78-7.91a23,23,0,0,1-19.15,0c-10.72-4.62-18.37-6.07-24.49-6.07s-14.29,2.89-20.92,3.86a68.55,68.55,0,0,1-24-1.45c-7.65-1.93-33.68-2.41-40.31-2.41s-3.57-1.93-18.88,0S414.82,185,405.12,187s-24.49,4.88-36.23,2.68-38.16-4.13-41.53-5.57-24.85-3.37-30.44-3.37-8,1-22.37,1-45,6.27-60.78,4.82-14.8-4.12-26-6.16-7.65,6.16-28.57,6.16-36.74-1-41.33.48-13.78,10.12-26,5.78-48.73,4.82-55.74-1-17.73.48-23.35,1A95.07,95.07,0,0,0,1,194.67Z"/><path class="cls-2" d="M1,145.36s85.21,1.34,109.2,0,49.49-4,62.76-4.47-1-2.68,46.94-.45S259.82,145,286,141s-5.41-6.79,40.51-4.11,55.62,6.55,63.27,6.18,21.43,3.94,44.9,0,27-8.41,44.9-6.18,16.33,6.55,34.19,6.18,36.74.37,42.35,0,28.68-2,28.68-2l.16-4.92s-32.41,2.36-48.23,0-19.39,2.36-38.78,0-16.84-7.27-30.62-3.7-14.8,8.71-37.76,6.14-26.53-4.36-41.33-4.36A253.44,253.44,0,0,1,351,131.28c-8.67-1.34-20.39-2.94-31.1-2s-17.42.49-23,2.27-18.91,2.68-28.06,2.23S251,132,239.29,132s-20.92-.45-34.19.45-42.35,5.22-52,3.5-37.25,10.34-51.54,4.09S78,133.61,67.33,135.91,39.82,140,39.82,140H1Z"/><path class="cls-2" d="M0,98.78s60.19,4.88,76.51,2.44S101,99.64,121.4,98.78s26.52.67,45.4,3.12,30.09,3.31,52.54,2.45,38.28-6.86,52.81-9,14.76-3.43,57-1.71,38.14.86,53.44,3.43,20.4,4.45,37.75,4.15,11.22.56,29.58-2.44S471.82,94.5,482,94.5s28.56,3.43,37.75,4.29,15.81,1.55,22.44,2.49,14.79-.08,17.34,0,18.87-2.51,18.87-2.51l6.39-3-1.29-6s-12.75,8.14-41.83,5.57-31.11-6-44.38-5.57-20.4-2.14-29.07,0-12.24,9.75-25.5,7.45-48.46-3.16-50-3.59-13.26-3.44-20.91-4.72-3.06-1.71-17.85-2.56-26.93-1.29-37.69-.86-25.51-.86-34.21.86-14.3,7.71-39.3,7.71-25,4.6-48.46,2.73S159.14,95.51,154,95s-23-3.08-23-3.08-17.85-.43-25,.86S75,94.65,71.41,95s-14.28-.35-19.89,0-23.94.93-25.23,0S1,95,1,95Z"/><path class="cls-2" d="M0,45.56s49.53.48,74.55,0,20.94,3.37,52.09,0,28.6-7.23,48.51-6.75,25,3.86,50,3.86a363.41,363.41,0,0,0,55.09-4.34c9.25-1.45-7.08-3.37,32.49,1s63.57,7.23,83.49,4.82,31.15-8.7,44.43-7.48,18.89,1.22,46.47,3.15,34.21,3.55,41.87,2,5.62-9.59,20.94-5.32S577,44.6,577,44.6l6.64-1.45.78-7.91a23,23,0,0,1-19.16,0c-10.72-4.62-18.38-6.07-24.51-6.07s-14.3,2.89-20.94,3.86a68.65,68.65,0,0,1-24-1.45c-7.66-1.93-33.7-2.41-40.34-2.41s-3.57-1.93-18.89,0S414.13,33,404.43,35s-24.51,4.88-36.26,2.68S330,33.51,326.61,32.07s-24.87-3.37-30.46-3.37-8,1-22.39,1-45,6.27-60.82,4.82-14.81-4.12-26-6.16-7.66,6.16-28.6,6.16-36.77-1-41.36.48-13.79,10.12-26,5.78-48.76,4.82-55.79-1-17.75.48-23.36,1A95.2,95.2,0,0,0,0,42.67Z"/><circle class="cls-3" cx="17" cy="217" r="2"/><circle class="cls-4" cx="82" cy="217" r="2"/><circle class="cls-5" cx="144" cy="217" r="2"/><circle class="cls-6" cx="209" cy="217" r="2"/><circle class="cls-7" cx="266" cy="217" r="2"/><circle class="cls-8" cx="331" cy="217" r="2"/><circle class="cls-9" cx="393" cy="217" r="2"/><circle class="cls-10" cx="458" cy="217" r="2"/><circle class="cls-11" cx="526" cy="217" r="2"/><circle class="cls-12" cx="38" cy="162" r="2"/><circle class="cls-13" cx="103" cy="162" r="2"/><circle class="cls-14" cx="165" cy="162" r="2"/><circle class="cls-15" cx="230" cy="162" r="2"/><circle class="cls-16" cx="287" cy="162" r="2"/><circle class="cls-17" cx="352" cy="162" r="2"/><circle class="cls-18" cx="414" cy="162" r="2"/><circle class="cls-19" cx="479" cy="162" r="2"/><circle class="cls-20" cx="547" cy="162" r="2"/><circle class="cls-21" cx="25" cy="115" r="2"/><circle class="cls-22" cx="90" cy="115" r="2"/><circle class="cls-23" cx="152" cy="115" r="2"/><circle class="cls-24" cx="217" cy="115" r="2"/><circle class="cls-25" cx="274" cy="115" r="2"/><circle class="cls-26" cx="339" cy="115" r="2"/><circle class="cls-27" cx="401" cy="115" r="2"/><circle class="cls-28" cx="466" cy="115" r="2"/><circle class="cls-29" cx="534" cy="115" r="2"/><circle class="cls-30" cx="17" cy="67" r="2"/><circle class="cls-31" cx="82" cy="67" r="2"/><circle class="cls-32" cx="144" cy="67" r="2"/><circle class="cls-33" cx="209" cy="67" r="2"/><circle class="cls-34" cx="266" cy="67" r="2"/><circle class="cls-35" cx="331" cy="67" r="2"/><circle class="cls-36" cx="393" cy="67" r="2"/><circle class="cls-37" cx="458" cy="67" r="2"/><circle class="cls-38" cx="526" cy="67" r="2"/></g></g></svg>